# xmcd
#
# Track frame offsets: 
#        150
#        13505
#        25905
#        40510
#        55020
#        67840
#        85835
#        103002
#        113790
#        124982
#        139062
#        151432
#        165042
#        176140
#        188622
#        204612
#        220172
#        231402
#
# Disc length: 3304 seconds
#
# Revision: 0
# Processed by: cddbd v1.5.2PL0 Copyright (c) Steve Scherf et al.
# Submitted via: ExactAudioCopyFreeDBPlugin 1.0
#
DISCID=e80ce612
DTITLE=Johnny Bremner - The Old Country Church
DYEAR=1994
DGENRE=Country
TTITLE0=I Didn't Stop Dancing
TTITLE1=Are You Walking And Talking With The Lord
TTITLE2=One Day At A Time
TTITLE3=Baptism Of Jesse Taylor
TTITLE4=Wait A Little Longer Please
TTITLE5=He Took Your Place
TTITLE6=The Great Speckled Bird
TTITLE7=Take My Hand Precious Lord
TTITLE8=The Old Account
TTITLE9=The Old Country Church
TTITLE10=When The Book Of Life Is Read
TTITLE11=Poor Wicked Soul
TTITLE12=Fallen Angel
TTITLE13=The World Is Not My Home
TTITLE14=Tabernacle Tom
TTITLE15=Sinner
TTITLE16=Old Brush Arbors
TTITLE17=Dear God...Melody
EXTD=
EXTT0=
EXTT1=
EXTT2=
EXTT3=
EXTT4=
EXTT5=
EXTT6=
EXTT7=
EXTT8=
EXTT9=
EXTT10=
EXTT11=
EXTT12=
EXTT13=
EXTT14=
EXTT15=
EXTT16=
EXTT17=
PLAYORDER=
